# xmcd
#
# Track frame offsets: 
#        150
#        21407
#        39021
#        63941
#        82163
#        95450
#        126687
#        139631
#        175626
#        188828
#        220420
#        238534
#        268361
#        282081
#        305805
#
# Disc length: 4357 seconds
#
# Revision: 4
# Processed by: cddbd v1.4PL0 Copyright (c) Steve Scherf et al.
# Submitted via: ExactAudioCopy v0.90b4
#
DISCID=df11030f
DTITLE=Eric Clapton - Blues Disc One (Studio Disc)
DYEAR=1999
DGENRE=Blues
TTITLE0=Before You Accuse Me (Take a Look At Yourself) [version 1 prev
TTITLE0=iously unrelaesed]
TTITLE1=Mean Old World
TTITLE2=Ain't That Loving You
TTITLE3=The Sky Is Crying
TTITLE4=Cryin'
TTITLE5=Have You Ever Loved a Woman
TTITLE6=Alberta [previously unreleased]
TTITLE7=Early In The Morning
TTITLE8=Give Me Strength
TTITLE9=Meet Me (Down At The Bottom) [previously unrelaesed]
TTITLE10=County Jail Blues
TTITLE11=Floating Bridges
TTITLE12=Blow Wind Blow
TTITLE13=To Make Somebody Happy
TTITLE14=Before You Accuse Me (Take a Look At Yourself) [version 2 pre
TTITLE14=viously unrelaesed]
EXTD=
EXTT0=
EXTT1=
EXTT2=
EXTT3=
EXTT4=
EXTT5=
EXTT6=
EXTT7=
EXTT8=
EXTT9=
EXTT10=
EXTT11=
EXTT12=
EXTT13=
EXTT14=
PLAYORDER=
